0
SECTION
2
HEADER
9
$INSUNITS
70
6
0
ENDSEC
0
SECTION
2
TABLES
0
TABLE
2
LAYER
0
LAYER
2
Poligono
70
0
62
5
6
CONTINUOUS
0
LAYER
2
Cartucho
70
0
62
7
6
CONTINUOUS
0
ENDTAB
0
ENDSEC
0
SECTION
2
BLOCKS
0
ENDSEC
0
SECTION
2
ENTITIES
0
POLYLINE
8
Poligono
66
1
70
9
62
5
0
VERTEX
8
Poligono
10
657516
20
1133545
30
0.0
0
VERTEX
8
Poligono
10
657693
20
1133675
30
0.0
0
VERTEX
8
Poligono
10
657868
20
1133550
30
0.0
0
VERTEX
8
Poligono
10
657808
20
1133393
30
0.0
0
VERTEX
8
Poligono
10
657516
20
1133545
30
0.0
0
SEQEND
0
TEXT
8
Poligono
10
657517
20
1133546
30
0.0
40
2.5
1
P1
0
TEXT
8
Poligono
10
657694
20
1133676
30
0.0
40
2.5
1
P2
0
TEXT
8
Poligono
10
657869
20
1133551
30
0.0
40
2.5
1
P3
0
TEXT
8
Poligono
10
657809
20
1133394
30
0.0
40
2.5
1
P4
0
TEXT
8
Poligono
10
657517
20
1133546
30
0.0
40
2.5
1
P5
0
LWPOLYLINE
8
Cartucho
90
5
70
1
10
657236
20
1133373
10
657476
20
1133373
10
657476
20
1133513
10
657236
20
1133513
10
657236
20
1133373
0
LINE
8
Cartucho
10
657291
20
1133373
30
0.0
11
657291
21
1133513
31
0.0
0
LINE
8
Cartucho
10
657341
20
1133373
30
0.0
11
657341
21
1133513
31
0.0
0
LINE
8
Cartucho
10
657386
20
1133373
30
0.0
11
657386
21
1133513
31
0.0
0
LINE
8
Cartucho
10
657426
20
1133373
30
0.0
11
657426
21
1133513
31
0.0
0
LINE
8
Cartucho
10
657236
20
1133513
30
0.0
11
657476
21
1133513
31
0.0
0
LINE
8
Cartucho
10
657236
20
1133507
30
0.0
11
657476
21
1133507
31
0.0
0
LINE
8
Cartucho
10
657236
20
1133501
30
0.0
11
657476
21
1133501
31
0.0
0
LINE
8
Cartucho
10
657236
20
1133495
30
0.0
11
657476
21
1133495
31
0.0
0
LINE
8
Cartucho
10
657236
20
1133489
30
0.0
11
657476
21
1133489
31
0.0
0
LINE
8
Cartucho
10
657236
20
1133483
30
0.0
11
657476
21
1133483
31
0.0
0
LINE
8
Cartucho
10
657236
20
1133477
30
0.0
11
657476
21
1133477
31
0.0
0
LINE
8
Cartucho
10
657236
20
1133471
30
0.0
11
657476
21
1133471
31
0.0
0
LINE
8
Cartucho
10
657236
20
1133465
30
0.0
11
657476
21
1133465
31
0.0
0
LINE
8
Cartucho
10
657236
20
1133459
30
0.0
11
657476
21
1133459
31
0.0
0
TEXT
8
Cartucho
10
657241
20
1133509
30
0.0
40
5
1
PLANO TOPOGRÁFICO
0
TEXT
8
Cartucho
10
657241
20
1133503
30
0.0
40
3
1
Propietario: HACIENDA LOS TUCUPIDOS
0
TEXT
8
Cartucho
10
657241
20
1133498
30
0.0
40
3
1
RIF: J-00000000-0
0
TEXT
8
Cartucho
10
657241
20
1133493
30
0.0
40
3
1
Área: 49919.50 m² (4.99195 ha)
0
TEXT
8
Cartucho
10
657241
20
1133488
30
0.0
40
3
1
Perímetro: 931.94 m.l.
0
TEXT
8
Cartucho
10
657241
20
1133483
30
0.0
40
3
1
Escala: 1:1
0
TEXT
8
Cartucho
10
657241
20
1133478
30
0.0
40
3
1
Fecha: 30/05/2025
0
TEXT
8
Cartucho
10
657238
20
1133457
30
0.0
40
2.5
1
VÉRTICE
0
TEXT
8
Cartucho
10
657291
20
1133457
30
0.0
40
2.5
1
LADO
0
TEXT
8
Cartucho
10
657341
20
1133457
30
0.0
40
2.5
1
DISTANCIA (m)
0
TEXT
8
Cartucho
10
657386
20
1133457
30
0.0
40
2.5
1
ÁNGULO
0
TEXT
8
Cartucho
10
657426
20
1133457
30
0.0
40
2.5
1
COORDENADAS (X,Y)
0
TEXT
8
Cartucho
10
657238
20
1133451
30
0.0
40
2.3
1
P1
0
TEXT
8
Cartucho
10
657291
20
1133451
30
0.0
40
2.3
1
L1
0
TEXT
8
Cartucho
10
657341
20
1133451
30
0.0
40
2.3
1
219.611
0
TEXT
8
Cartucho
10
657386
20
1133451
30
0.0
40
2.3
1
36.30°
0
TEXT
8
Cartucho
10
657426
20
1133451
30
0.0
40
2.3
1
657,516.00, 1,133,545.00
0
TEXT
8
Cartucho
10
657238
20
1133445
30
0.0
40
2.3
1
P2
0
TEXT
8
Cartucho
10
657291
20
1133445
30
0.0
40
2.3
1
L2
0
TEXT
8
Cartucho
10
657341
20
1133445
30
0.0
40
2.3
1
215.058
0
TEXT
8
Cartucho
10
657386
20
1133445
30
0.0
40
2.3
1
324.46°
0
TEXT
8
Cartucho
10
657426
20
1133445
30
0.0
40
2.3
1
657,693.00, 1,133,675.00
0
TEXT
8
Cartucho
10
657238
20
1133439
30
0.0
40
2.3
1
P3
0
TEXT
8
Cartucho
10
657291
20
1133439
30
0.0
40
2.3
1
L3
0
TEXT
8
Cartucho
10
657341
20
1133439
30
0.0
40
2.3
1
168.074
0
TEXT
8
Cartucho
10
657386
20
1133439
30
0.0
40
2.3
1
249.08°
0
TEXT
8
Cartucho
10
657426
20
1133439
30
0.0
40
2.3
1
657,868.00, 1,133,550.00
0
TEXT
8
Cartucho
10
657238
20
1133433
30
0.0
40
2.3
1
P4
0
TEXT
8
Cartucho
10
657291
20
1133433
30
0.0
40
2.3
1
L4
0
TEXT
8
Cartucho
10
657341
20
1133433
30
0.0
40
2.3
1
329.193
0
TEXT
8
Cartucho
10
657386
20
1133433
30
0.0
40
2.3
1
152.50°
0
TEXT
8
Cartucho
10
657426
20
1133433
30
0.0
40
2.3
1
657,808.00, 1,133,393.00
0
TEXT
8
Cartucho
10
657238
20
1133427
30
0.0
40
2.3
1
P5
0
TEXT
8
Cartucho
10
657291
20
1133427
30
0.0
40
2.3
1

0
TEXT
8
Cartucho
10
657341
20
1133427
30
0.0
40
2.3
1

0
TEXT
8
Cartucho
10
657386
20
1133427
30
0.0
40
2.3
1

0
TEXT
8
Cartucho
10
657426
20
1133427
30
0.0
40
2.3
1
657,516.00, 1,133,545.00
0
LINE
8
Cartucho
10
657526
20
1133383
30
0
11
657526
21
1133398
31
0
0
LINE
8
Cartucho
10
657526
20
1133383
30
0
11
657541
21
1133383
31
0
0
TEXT
8
Cartucho
10
657526
20
1133401
30
0
40
3
1
N
0
TEXT
8
Cartucho
10
657544
20
1133383
30
0
40
3
1
E
0
TEXT
8
Cartucho
10
657526
20
1133378
30
0
40
3
1
S
0
TEXT
8
Cartucho
10
657519
20
1133383
30
0
40
3
1
O
0
TEXT
8
Poligono
10
657680.2
20
1133541.6
30
0.0
40
5
1
poligono12
0
ENDSEC
0
SECTION
2
OBJECTS
0
ENDSEC
0
EOF